<svg width="12" height="8" viewBox="0 0 12 8" fill="none" xmlns="http://www.w3.org/2000/svg">
<path d="M10.9999 6.83006C10.8126 7.01631 10.5591 7.12085 10.2949 7.12085C10.0308 7.12085 9.77731 7.01631 9.58995 6.83006L5.99995 3.29006L2.45995 6.83006C2.27259 7.01631 2.01913 7.12085 1.75495 7.12085C1.49076 7.12085 1.23731 7.01631 1.04995 6.83006C0.95622 6.73709 0.881826 6.62649 0.831057 6.50463C0.780288 6.38277 0.75415 6.25207 0.75415 6.12006C0.75415 5.98805 0.780288 5.85734 0.831057 5.73548C0.881826 5.61362 0.95622 5.50302 1.04995 5.41006L5.28995 1.17006C5.38291 1.07633 5.49351 1.00194 5.61537 0.951166C5.73723 0.900397 5.86794 0.874259 5.99995 0.874259C6.13196 0.874259 6.26267 0.900397 6.38453 0.951166C6.50638 1.00194 6.61699 1.07633 6.70995 1.17006L10.9999 5.41006C11.0937 5.50302 11.1681 5.61362 11.2188 5.73548C11.2696 5.85734 11.2957 5.98805 11.2957 6.12006C11.2957 6.25207 11.2696 6.38277 11.2188 6.50463C11.1681 6.62649 11.0937 6.73709 10.9999 6.83006Z" fill="#272727"/>
</svg>
