<svg width="10" height="10" viewBox="0 0 10 10" fill="none" xmlns="http://www.w3.org/2000/svg">
<path d="M4.70421 6.37075C4.68629 6.39055 4.66959 6.41142 4.65421 6.43325C4.63844 6.45648 4.62583 6.4817 4.61671 6.50825C4.6047 6.53187 4.59627 6.55715 4.59171 6.58325C4.58966 6.61099 4.58966 6.63885 4.59171 6.66659C4.5903 6.72124 4.60172 6.77547 4.62504 6.82492C4.64376 6.87663 4.67361 6.92358 4.71249 6.96247C4.75138 7.00135 4.79834 7.03121 4.85004 7.04992C4.89992 7.07196 4.95385 7.08335 5.00838 7.08335C5.06291 7.08335 5.11683 7.07196 5.16671 7.04992C5.21842 7.03121 5.26537 7.00135 5.30426 6.96247C5.34314 6.92358 5.373 6.87663 5.39171 6.82492C5.41021 6.77426 5.4187 6.72048 5.41671 6.66659C5.41703 6.61175 5.40652 6.55739 5.38578 6.50662C5.36504 6.45586 5.33449 6.40969 5.29588 6.37075C5.25714 6.3317 5.21106 6.3007 5.16028 6.27955C5.10951 6.25839 5.05505 6.2475 5.00004 6.2475C4.94504 6.2475 4.89058 6.25839 4.8398 6.27955C4.78903 6.3007 4.74294 6.3317 4.70421 6.37075ZM5.00004 0.833252C4.17595 0.833252 3.37037 1.07762 2.68517 1.53546C1.99996 1.9933 1.46591 2.64405 1.15054 3.4054C0.835179 4.16676 0.752665 5.00454 0.913437 5.8128C1.07421 6.62105 1.47105 7.36348 2.05376 7.9462C2.63648 8.52892 3.37891 8.92575 4.18717 9.08652C4.99542 9.2473 5.8332 9.16478 6.59456 8.84942C7.35592 8.53405 8.00666 8 8.4645 7.3148C8.92234 6.62959 9.16671 5.82401 9.16671 4.99992C9.16671 4.45274 9.05893 3.91093 8.84954 3.4054C8.64015 2.89988 8.33323 2.44055 7.94632 2.05364C7.55941 1.66673 7.10008 1.35982 6.59456 1.15042C6.08903 0.941026 5.54722 0.833252 5.00004 0.833252ZM5.00004 8.33325C4.34077 8.33325 3.69631 8.13776 3.14814 7.77148C2.59998 7.40521 2.17274 6.88462 1.92044 6.27553C1.66815 5.66644 1.60214 4.99622 1.73076 4.34962C1.85938 3.70301 2.17684 3.10907 2.64302 2.6429C3.10919 2.17672 3.70314 1.85925 4.34974 1.73063C4.99634 1.60202 5.66657 1.66803 6.27565 1.92032C6.88474 2.17261 7.40534 2.59985 7.77161 3.14802C8.13788 3.69618 8.33337 4.34065 8.33337 4.99992C8.33337 5.88397 7.98219 6.73182 7.35706 7.35694C6.73194 7.98206 5.8841 8.33325 5.00004 8.33325ZM5.00004 2.91659C4.78049 2.91644 4.56476 2.97414 4.37459 3.08385C4.18441 3.19357 4.02649 3.35144 3.91671 3.54159C3.88656 3.58901 3.86632 3.64204 3.8572 3.69749C3.84808 3.75294 3.85027 3.80966 3.86364 3.86425C3.87701 3.91883 3.90128 3.97014 3.93499 4.0151C3.96871 4.06006 4.01117 4.09773 4.05982 4.12585C4.10847 4.15398 4.16231 4.17197 4.2181 4.17874C4.27388 4.18552 4.33046 4.18094 4.38443 4.16528C4.4384 4.14963 4.48865 4.12321 4.53215 4.08764C4.57564 4.05206 4.61149 4.00805 4.63754 3.95825C4.67425 3.89467 4.72711 3.84191 4.79077 3.80533C4.85443 3.76874 4.92662 3.74963 5.00004 3.74992C5.11055 3.74992 5.21653 3.79382 5.29467 3.87196C5.37281 3.9501 5.41671 4.05608 5.41671 4.16659C5.41671 4.27709 5.37281 4.38307 5.29467 4.46121C5.21653 4.53935 5.11055 4.58325 5.00004 4.58325C4.88954 4.58325 4.78355 4.62715 4.70541 4.70529C4.62727 4.78343 4.58338 4.88941 4.58338 4.99992V5.41659C4.58338 5.52709 4.62727 5.63307 4.70541 5.71121C4.78355 5.78935 4.88954 5.83325 5.00004 5.83325C5.11055 5.83325 5.21653 5.78935 5.29467 5.71121C5.37281 5.63307 5.41671 5.52709 5.41671 5.41659V5.34159C5.69228 5.24159 5.92394 5.04793 6.0712 4.79445C6.21845 4.54096 6.27193 4.24379 6.22229 3.95487C6.17265 3.66596 6.02304 3.40368 5.79962 3.21388C5.5762 3.02409 5.29318 2.91886 5.00004 2.91659Z" fill="#272727" fill-opacity="0.6"/>
</svg>
